<svg id="Layer_1" enable-background="new 0 0 508.342 508.342" height="512" viewBox="0 0 508.342 508.342" width="512" xmlns="http://www.w3.org/2000/svg" fill="#f74c4e"><path d="m254.171 0-225 125.357v257.628l225 125.357 225-125.357v-257.628zm178.112 133.576-58.477 28.642-119.635-59.818-120 60-57.893-28.946 177.893-99.112zm-178.112 238.824-86.46-43.229 86.46-43.229 86.459 43.229zm105-67.5-90-45v-116.459l90 45zm-120-45-90 45v-116.459l90-45zm-180-101.459 60 30v150l120 60v67.201l-180-100.285zm210 307.202v-67.201l120-60v-150.344l60-29.388v206.647z"/></svg>