<svg id="Capa_1" enable-background="new 0 0 512 512" height="512" viewBox="0 0 512 512" width="512" xmlns="http://www.w3.org/2000/svg" fill="#2a2e3d"><g><path d="m176.862 400.784c14.725-3.714 28.915-9.422 42.112-17.041 5.011-2.893 9.825-6.056 14.464-9.429-34.141-36.283-53.439-84.333-53.439-134.329 0-55.869 24.069-109.304 66.036-146.603l9.965-8.855 9.965 8.856c23.325 20.731 41.111 46.45 52.319 74.798 24.057 5.375 47.42 13.859 69.442 25.284-5.436-29.486-16.013-57.874-31.357-83.758-22.504-37.963-54.624-69.669-92.887-91.69-4.632-2.666-10.332-2.666-14.964 0-38.35 22.072-70.521 53.859-93.037 91.927-23.212 39.244-35.481 84.211-35.481 130.04s12.269 90.796 35.48 130.041c6.379 10.783 13.533 21.062 21.382 30.759z"/><path d="m358.979 365.69c6.168-10.974 11.501-22.371 15.977-34.081-10.54-10.87-22.594-20.343-35.929-28.042-4.964-2.866-10.068-5.462-15.288-7.785-14.278 47.924-46.316 88.857-89.765 113.943-48.384 27.935-106.695 33.807-159.98 16.112l-12.652-4.201 2.687-13.058c6.334-30.775 19.851-59.219 39.003-83.202-7.341-23.49-11.648-47.931-12.746-72.704-22.953 19.471-42.364 42.883-57.193 69.204-21.71 38.531-33.152 82.286-33.093 126.534.008 5.345 2.857 10.281 7.482 12.96 38.203 22.126 81.721 34.089 125.85 34.597 45.48.523 90.474-11.235 130.116-34.001l.996-.575c39.569-22.966 72.247-56.053 94.535-95.701z"/><path d="m478.907 321.375c-22.382-39.724-55.189-72.833-94.879-95.748-39.689-22.915-84.766-34.773-130.359-34.293-12.499.132-24.95 1.183-37.245 3.123-4.217 14.682-6.425 29.993-6.425 45.529 0 5.622.294 11.208.855 16.744 48.529-11.467 99.839-4.162 143.173 20.857 48.384 27.935 82.625 75.497 93.943 130.49l2.688 13.058-12.652 4.201c-29.705 9.865-60.971 12.396-91.21 7.872-16.624 18.126-35.579 34.121-56.439 47.501 28.282 10.058 58.189 15.104 88.311 14.757 44.129-.508 87.647-12.471 125.85-34.597 4.625-2.678 7.475-7.615 7.482-12.96.059-44.247-11.383-88.002-33.093-126.534z"/></g></svg>