<?xml version="1.0" standalone="no"?>
<!DOCTYPE svg PUBLIC "-//W3C//DTD SVG 20010904//EN"
 "http://www.w3.org/TR/2001/REC-SVG-20010904/DTD/svg10.dtd">
<svg version="1.0" xmlns="http://www.w3.org/2000/svg"
 width="613.000000pt" height="793.000000pt" viewBox="0 0 613.000000 793.000000"
 preserveAspectRatio="xMidYMid meet">
<metadata>
Created by potrace 1.16, written by Peter Selinger 2001-2019
</metadata>
<g transform="translate(0.000000,793.000000) scale(0.100000,-0.100000)"
fill="#bab8b9" stroke="none">
<path d="M1283 7127 c6 -72 37 -231 52 -269 7 -16 -10 -18 -241 -20 l-249 -3
-3 -2342 -2 -2342 62 -34 c35 -19 135 -72 224 -118 88 -46 357 -187 598 -314
l438 -230 -118 -113 c-103 -98 -277 -239 -366 -297 -39 -24 -24 -40 15 -16 18
10 170 89 340 175 l307 156 33 -16 c17 -9 106 -56 197 -104 91 -48 228 -120
305 -160 77 -40 164 -86 192 -102 l53 -29 142 75 c503 264 643 336 652 336 5
0 164 -79 353 -175 188 -96 343 -170 343 -165 0 5 -30 30 -67 56 -142 100
-456 374 -443 386 3 3 61 34 130 70 69 36 260 137 425 223 165 87 368 194 450
237 83 43 183 95 223 116 l72 36 0 2348 0 2348 -235 0 c-129 0 -235 2 -235 4
0 3 9 42 20 88 11 46 23 125 27 177 l6 94 -49 -28 c-237 -135 -311 -184 -384
-257 l-78 -78 -1340 0 -1340 0 -78 78 c-77 75 -179 144 -358 242 l-79 44 6
-77z m3677 -8 c0 -98 -67 -345 -125 -459 -41 -80 -143 -214 -256 -336 -101
-109 -477 -473 -489 -474 -3 0 -4 59 -2 130 3 72 -1 180 -7 241 l-12 110 98
112 c54 61 155 179 223 262 205 245 226 264 455 397 55 32 103 58 107 58 5 0
8 -18 8 -41z m-3594 -356 c12 -32 24 -66 28 -75 7 -16 -7 -18 -186 -20 l-193
-3 -3 -72 c-2 -56 -6 -73 -17 -73 -19 0 -19 -12 0 -57 20 -48 23 -715 3 -709
-7 3 -26 7 -42 11 l-28 6 41 -76 41 -77 0 -219 c0 -216 0 -220 -20 -214 l-20
6 20 -51 c18 -46 20 -74 20 -305 l0 -255 128 0 127 0 79 -75 78 -75 -206 0
-206 0 0 -35 c0 -22 -6 -38 -15 -41 -18 -7 -20 -35 -2 -52 9 -10 13 -236 17
-1033 l5 -1020 430 -226 c237 -124 453 -242 480 -263 28 -21 73 -45 102 -53
54 -16 243 -114 243 -125 -1 -4 -22 -31 -48 -60 l-47 -52 -440 231 c-242 127
-538 282 -657 346 l-218 114 0 2330 0 2329 243 0 242 0 21 -57z m3084 51 c0
-3 -26 -37 -57 -75 l-57 -69 -568 0 -568 0 0 -601 0 -602 -75 -76 -75 -76 0
72 c0 39 5 75 10 78 8 5 8 11 1 19 -7 9 -12 211 -13 597 l-3 584 -560 3 -560
3 -40 51 c-22 27 -48 61 -58 74 l-19 24 1321 0 c727 0 1321 -3 1321 -6z m930
-2329 c0 -1284 -3 -2335 -8 -2335 -4 0 -295 -151 -646 -335 l-639 -336 -27 26
-28 26 -117 -21 c-65 -11 -119 -19 -121 -17 -11 10 139 67 191 72 106 10 143
29 279 140 122 100 146 114 505 302 207 108 394 207 416 219 l40 22 5 999 5
998 23 36 c29 47 28 67 -3 75 -21 5 -25 12 -25 40 l0 34 -195 0 -195 0 78 75
77 74 118 1 117 0 0 218 c0 217 0 218 30 300 36 98 35 95 11 82 -40 -21 -41
-16 -41 191 l0 202 50 92 c28 51 50 96 50 99 0 4 -8 5 -17 2 -10 -2 -33 -7
-50 -11 l-33 -7 0 315 0 314 29 64 c16 35 27 67 24 72 -2 4 -15 7 -29 7 -23 0
-24 2 -24 75 l0 75 -184 0 -184 0 23 58 c12 31 25 65 28 75 6 15 26 17 237 17
l230 0 0 -2335z m-3949 2128 c71 -118 181 -246 388 -453 125 -124 264 -259
310 -300 l83 -74 -8 54 c-10 71 -7 357 4 435 l9 60 -134 155 -133 155 536 3
c296 1 539 1 541 -1 2 -2 2 -255 1 -562 l-3 -559 -375 372 c-240 238 -377 367
-382 359 -22 -41 -17 -436 8 -519 3 -9 66 -71 142 -138 105 -94 357 -328 403
-374 3 -3 51 40 107 96 l102 103 0 -63 0 -64 -200 -209 c-110 -115 -207 -223
-216 -240 -13 -27 -33 -159 -34 -226 0 -21 -5 -23 -50 -23 l-50 0 6 88 7 89
-89 74 c-254 212 -459 369 -462 354 -6 -27 17 -138 44 -222 33 -99 92 -221
149 -308 25 -37 45 -70 45 -71 0 -2 -32 -4 -71 -4 -69 0 -74 2 -135 45 -34 25
-65 45 -69 45 -3 0 -3 -20 1 -45 6 -45 6 -45 -24 -45 -31 0 -31 0 -37 68 -7
64 -9 69 -44 92 -133 88 -298 178 -506 278 -132 63 -246 119 -252 125 -10 7
-13 62 -13 211 l0 201 68 -115 c148 -251 153 -256 440 -439 95 -61 250 -163
344 -226 93 -63 171 -115 174 -115 2 0 -21 48 -50 108 -76 152 -123 311 -128
428 -1 24 -6 51 -12 58 -6 7 -54 45 -106 84 -52 39 -138 105 -190 148 -174
141 -238 172 -472 230 l-68 16 0 311 c0 171 3 308 6 305 3 -3 59 -118 126
-254 80 -166 132 -262 156 -288 51 -53 129 -114 422 -329 140 -102 277 -204
305 -224 37 -29 47 -33 41 -18 -23 60 -54 267 -71 492 l-7 82 -91 78 c-413
352 -624 503 -815 583 l-67 29 -3 65 -3 66 190 0 189 0 23 -37z m2873 25 c-11
-18 -96 -119 -182 -215 l-73 -83 12 -117 c7 -74 10 -175 6 -270 -4 -84 -4
-153 -1 -153 3 0 33 26 67 58 33 31 99 93 146 137 295 279 491 498 555 623
l17 32 179 0 180 0 0 -68 0 -68 -72 -35 c-134 -63 -235 -126 -365 -225 -145
-111 -467 -379 -499 -415 -18 -20 -23 -42 -28 -134 -8 -130 -29 -288 -51 -380
-8 -37 -15 -71 -15 -76 0 -5 55 33 123 84 67 52 199 149 292 217 244 178 349
263 376 307 13 21 72 137 131 257 l108 220 0 -295 0 -295 -77 -18 c-112 -26
-232 -68 -279 -98 -22 -14 -110 -82 -195 -150 -85 -68 -179 -141 -209 -162
l-56 -39 -12 -97 c-14 -123 -60 -267 -126 -395 -28 -55 -52 -104 -54 -108 -3
-5 58 34 134 87 77 52 218 145 314 207 370 236 376 243 515 485 l45 79 0 -191
0 -190 -112 -54 c-259 -123 -400 -195 -512 -263 -151 -92 -166 -106 -166 -154
0 -65 -9 -83 -41 -83 -28 0 -29 1 -22 46 7 53 7 53 -82 -10 -46 -33 -55 -36
-123 -36 l-73 0 39 58 c50 73 122 217 156 310 25 69 61 241 52 249 -9 10 -566
-444 -711 -579 -37 -35 -44 -38 -100 -37 l-60 0 125 121 c129 125 285 264 427
381 81 67 83 70 107 145 31 101 43 161 61 317 17 150 19 198 6 193 -27 -9
-531 -502 -702 -686 l-96 -103 -7 -137 c-4 -75 -9 -158 -13 -184 -5 -45 -7
-48 -35 -48 -26 0 -29 3 -25 23 3 12 8 78 12 147 l6 125 -51 -54 -50 -55 0
932 0 932 546 0 c433 0 544 -3 538 -12z m956 -142 c0 -7 -75 -166 -192 -406
-132 -270 -111 -246 -369 -436 -89 -65 -233 -172 -320 -236 -88 -65 -161 -118
-163 -118 -1 0 6 46 16 103 10 56 24 172 31 257 l12 154 90 80 c111 99 469
385 544 435 131 88 351 192 351 167z m17 -798 c-14 -24 -55 -97 -92 -163 -150
-266 -201 -327 -351 -420 -44 -27 -185 -119 -314 -204 -129 -86 -240 -159
-247 -164 -7 -4 6 31 28 79 50 109 86 231 101 347 6 51 17 95 23 99 30 18 200
150 280 217 166 138 222 166 450 222 154 38 151 38 122 -13z m-1107 4 c0 -36
-33 -283 -46 -342 -34 -155 -40 -164 -192 -293 -196 -166 -270 -233 -448 -409
l-110 -109 7 61 c4 34 10 126 14 206 l7 144 112 117 c228 239 305 317 471 473
160 150 185 171 185 152z m-980 -304 c0 -50 -22 -269 -35 -361 l-15 -98 -76
-87 c-122 -140 -304 -359 -383 -462 -40 -52 -77 -96 -82 -98 -9 -4 -2 295 11
437 7 74 14 101 33 128 28 39 528 560 540 562 4 1 7 -9 7 -21z m10 -417 l0
-219 -42 -48 c-24 -27 -58 -64 -75 -84 l-32 -35 -1 105 0 105 55 62 55 61 17
136 c10 75 19 136 20 136 2 0 3 -99 3 -219z m1080 82 c-41 -150 -94 -265 -187
-406 -39 -58 -68 -85 -207 -189 -184 -139 -282 -218 -415 -337 l-94 -85 7 54
c3 30 13 116 21 190 l16 135 92 89 c229 220 780 671 785 643 2 -9 -6 -51 -18
-94z m930 -46 c-53 -140 -129 -291 -187 -367 -63 -84 -234 -242 -328 -305
-114 -75 -410 -222 -400 -198 63 151 128 378 141 493 3 36 10 71 13 78 13 23
243 161 391 234 287 141 405 195 408 186 2 -4 -15 -59 -38 -121z m-4102 -177
c27 -58 70 -135 95 -172 l47 -68 -110 0 -110 0 1 203 c0 181 2 199 14 172 8
-16 36 -77 63 -135z m4102 -65 l0 -175 -95 0 c-52 0 -95 1 -95 3 0 2 24 41 54
86 30 45 72 123 93 172 21 48 39 89 41 89 1 0 2 -79 2 -175z m-1920 -76 c-7
-74 -18 -168 -26 -209 -13 -69 -18 -79 -67 -130 -30 -30 -121 -129 -202 -220
-189 -211 -193 -215 -299 -340 -49 -58 -98 -114 -108 -125 -18 -19 -18 -15
-12 145 4 91 10 174 15 186 13 37 697 840 706 830 2 -2 -1 -64 -7 -137z m1030
-144 c-25 -120 -62 -234 -122 -383 -48 -116 -53 -124 -92 -144 -81 -41 -374
-228 -520 -332 -81 -58 -145 -98 -141 -88 19 48 76 273 87 343 l13 80 75 68
c81 73 268 228 366 303 89 68 346 249 350 245 2 -1 -5 -43 -16 -92z m-2036
-41 c50 -37 95 -71 101 -75 5 -5 -17 -9 -51 -9 -59 0 -62 2 -163 75 l-104 75
63 0 c61 0 64 -1 154 -66z m691 -9 l-67 -75 -85 0 c-96 0 -95 -9 -13 93 l45
56 93 1 94 0 -67 -75z m379 33 l-7 -43 45 43 c41 40 47 42 103 42 l59 0 -80
-75 -79 -75 -63 0 c-56 0 -63 2 -58 18 3 9 8 35 11 57 12 70 14 75 46 75 29 0
29 -1 23 -42z m831 34 c-6 -5 -52 -39 -103 -76 -91 -66 -94 -67 -149 -64 l-57
3 95 72 c94 71 94 72 159 72 35 1 60 -3 55 -7z m-2638 -234 c106 -72 450 -255
459 -245 3 2 -13 49 -34 103 -33 81 -72 197 -72 211 0 2 13 3 29 3 28 0 31 -4
59 -87 16 -49 48 -133 71 -188 43 -100 43 -100 104 -134 34 -19 108 -63 163
-97 56 -35 109 -66 117 -69 15 -6 14 -19 33 326 l6 106 -87 69 -86 69 55 3
c48 3 61 -1 91 -24 l35 -26 0 26 c0 24 3 26 43 26 l42 0 -2 -90 c-1 -49 2 -90
6 -90 4 0 38 41 75 90 l68 90 85 0 85 0 -44 -52 c-249 -296 -277 -333 -282
-368 -10 -72 -18 -395 -9 -385 5 6 45 52 89 104 115 137 374 431 379 431 3 0
5 -24 5 -54 0 -58 7 -48 -159 -231 -36 -40 -251 -290 -302 -352 -26 -31 -27
-37 -34 -215 -4 -101 -6 -194 -4 -208 4 -23 6 -22 37 23 87 125 421 533 453
553 5 3 9 -24 9 -59 l0 -64 -102 -119 c-57 -66 -121 -142 -143 -170 -22 -27
-89 -107 -150 -178 -98 -116 -110 -134 -112 -170 -1 -23 -4 -81 -8 -130 l-6
-90 22 20 c12 10 69 73 127 139 126 144 269 296 329 348 l43 39 0 -65 0 -65
-187 -168 c-103 -93 -222 -200 -264 -239 l-76 -70 -12 -75 c-6 -41 -14 -88
-18 -104 l-5 -30 48 41 c81 67 493 353 509 353 3 0 5 -33 5 -73 l0 -72 -155
-100 c-85 -55 -217 -140 -294 -190 l-139 -90 -27 -108 c-15 -59 -25 -110 -22
-113 3 -3 40 14 84 39 89 51 536 277 546 277 4 0 7 -17 7 -37 l0 -38 -178 -90
c-97 -50 -250 -128 -338 -174 l-161 -83 -39 -116 c-21 -65 -40 -122 -42 -129
-2 -7 20 0 50 14 71 34 659 293 666 293 3 0 14 7 24 17 17 15 18 14 18 -34 l0
-50 -112 -48 c-62 -26 -227 -103 -366 -171 l-254 -123 -79 39 c-43 22 -79 42
-79 44 0 2 11 1 24 -1 21 -4 26 1 45 59 12 34 24 91 28 124 l6 62 -121 7
c-112 7 -290 1 -354 -11 l-27 -5 32 -30 c34 -32 -10 -11 -353 171 -80 42 -200
106 -267 141 l-123 64 0 982 c0 541 2 983 4 983 1 0 38 -46 82 -102 117 -154
209 -262 250 -296 20 -17 77 -53 128 -80 106 -58 515 -246 522 -239 3 2 -9 42
-26 88 -39 106 -77 258 -86 349 l-7 70 -71 38 c-39 22 -174 92 -299 157 -215
110 -234 118 -320 131 -51 8 -111 14 -134 14 -39 0 -43 2 -43 25 l0 25 204 0
204 0 109 -72z m1848 20 c-4 -29 -15 -120 -27 -201 -11 -82 -18 -151 -15 -153
2 -2 35 24 73 58 110 101 202 179 312 266 l103 82 61 0 60 0 -98 -79 c-55 -43
-154 -127 -221 -185 -97 -84 -123 -112 -123 -132 0 -50 -41 -227 -80 -346 -22
-67 -39 -123 -37 -124 2 -2 73 47 159 109 161 115 379 256 521 337 l79 46 43
100 c23 55 56 139 71 186 27 81 31 87 57 88 17 0 27 -5 27 -14 0 -15 -65 -201
-94 -268 -9 -21 -14 -38 -11 -38 3 0 78 36 167 81 164 82 293 157 359 210 l37
29 196 0 196 0 0 -25 c0 -22 -4 -25 -35 -25 -19 0 -69 -5 -112 -11 -79 -12
-166 -52 -590 -271 l-102 -53 -6 -45 c-21 -155 -41 -231 -121 -462 -4 -12 60
14 213 83 409 188 435 205 566 368 52 64 113 142 137 174 23 31 44 57 46 57 2
0 4 -436 4 -969 l0 -969 -262 -137 c-145 -76 -306 -161 -358 -188 -52 -28 -89
-44 -82 -35 12 15 9 18 -25 24 -64 13 -382 10 -499 -5 l-111 -13 -42 -64 c-23
-35 -89 -113 -147 -173 l-106 -110 143 -3 143 -3 -164 -86 c-91 -48 -228 -119
-305 -159 -77 -40 -144 -77 -150 -81 -5 -5 -13 -9 -17 -9 -4 0 -8 79 -8 176
l0 176 129 -7 130 -7 67 58 c67 60 218 224 235 257 9 16 7 17 -18 11 -47 -12
-342 -109 -446 -147 -95 -35 -98 -36 -95 -15 3 18 41 34 273 115 188 65 276
101 288 116 69 83 229 351 205 342 -7 -2 -87 -30 -178 -60 -162 -56 -448 -159
-543 -196 l-48 -19 3 47 3 46 130 54 c72 30 229 92 350 139 121 47 230 89 242
94 25 10 85 110 133 219 39 91 72 183 66 189 -4 4 -257 -108 -616 -272 l-165
-75 -45 -88 c-25 -48 -58 -106 -73 -128 l-27 -40 0 53 c0 40 7 65 31 107 32
57 30 66 -9 39 l-22 -15 0 70 c0 64 3 75 43 143 42 71 108 209 122 257 8 27
15 29 -87 -36 -36 -24 -69 -43 -72 -43 -3 0 -6 33 -6 73 0 70 1 74 30 95 37
28 111 178 141 286 27 102 40 189 25 178 -6 -5 -51 -41 -101 -82 l-90 -73 -3
66 c-3 66 -2 67 34 99 42 37 79 113 130 268 37 113 76 280 66 280 -4 0 -57
-51 -119 -112 l-113 -113 0 60 c0 50 4 63 27 87 23 24 30 46 49 165 13 76 26
174 29 218 l7 80 -56 -55 -56 -54 0 54 c0 45 4 59 27 82 24 25 34 28 90 28
l64 0 -6 -52z m1865 -30 c0 -15 -127 -188 -251 -343 -101 -126 -146 -164 -279
-232 -118 -61 -440 -206 -445 -201 -2 2 7 33 19 68 29 80 76 285 76 332 0 19
6 42 13 51 20 27 568 305 622 316 113 23 245 28 245 9z m-2132 -189 l-73 -80
-3 55 -3 56 73 81 73 80 3 -55 3 -56 -73 -81z m157 -15 c-14 -93 -25 -173 -25
-178 0 -4 -48 -58 -108 -120 -199 -206 -383 -419 -514 -596 -39 -52 -75 -99
-80 -105 -7 -6 -7 53 -3 165 l7 175 112 130 c233 272 626 708 633 702 2 -2 -8
-80 -22 -173z m115 -315 c-42 -164 -116 -342 -154 -369 -118 -83 -383 -341
-574 -558 -74 -84 -135 -152 -136 -150 -2 2 0 46 3 98 l6 95 184 220 c102 121
237 281 300 355 141 163 384 416 389 402 1 -5 -7 -47 -18 -93z m-207 -93 c-4
-7 -38 -46 -75 -87 l-68 -73 0 68 0 68 73 75 72 75 3 -56 c2 -31 -1 -62 -5
-70z m-16 -501 c-14 -11 -48 -40 -76 -63 l-51 -44 0 69 c0 77 -8 65 105 162
l40 35 3 -70 c3 -63 1 -71 -21 -89z m203 59 c-12 -51 -42 -133 -71 -192 -49
-100 -52 -105 -117 -145 -113 -70 -490 -324 -590 -398 -51 -39 -96 -69 -98
-67 -2 3 1 31 6 64 9 56 13 63 82 129 228 219 794 712 805 701 2 -2 -5 -44
-17 -92z m-180 -439 l0 -74 -70 -46 c-39 -25 -73 -45 -75 -45 -3 0 -5 34 -5
75 l0 75 67 45 c37 25 71 45 75 45 5 0 8 -34 8 -75z m112 -99 c-35 -74 -123
-218 -164 -267 -7 -8 -174 -97 -372 -197 l-358 -181 6 34 c4 18 13 56 22 84
l15 51 172 113 c95 62 278 180 407 261 129 82 251 159 270 171 19 13 37 21 38
20 2 -2 -14 -42 -36 -89z m773 -52 c-45 -110 -98 -211 -128 -245 -14 -17 -52
-36 -102 -54 -75 -25 -512 -198 -618 -244 -27 -12 -44 -15 -40 -8 4 6 30 46
58 87 27 41 66 109 87 150 l37 75 368 166 c202 92 369 165 371 164 2 -2 -13
-43 -33 -91z m-877 -355 c-41 -71 -209 -290 -232 -299 -11 -5 -165 -73 -340
-150 -175 -77 -321 -138 -324 -136 -8 8 50 171 67 187 9 9 138 79 286 155 149
75 333 170 410 210 77 41 144 73 148 74 4 0 -3 -18 -15 -41z m-8 -108 c0 -40
-6 -56 -37 -96 -37 -49 -34 -52 20 -30 15 6 17 1 17 -40 0 -38 -10 -66 -50
-139 -27 -50 -61 -109 -74 -131 l-25 -40 -1 59 c0 47 6 69 31 112 17 30 28 54
25 54 -2 0 -16 -4 -30 -10 l-26 -10 0 61 c0 60 1 63 73 160 39 54 73 99 75 99
1 0 2 -22 2 -49z m724 -18 c-36 -63 -129 -202 -153 -231 -22 -25 -15 -22 -331
-132 -124 -42 -259 -89 -299 -103 -41 -15 -77 -25 -79 -23 -2 3 19 42 46 88
28 45 62 108 77 139 l28 56 156 58 c196 74 575 204 579 200 2 -2 -9 -25 -24
-52z m-864 -280 c0 -18 -127 -217 -164 -257 -34 -37 -72 -59 -231 -132 -104
-49 -334 -159 -510 -246 -176 -87 -308 -148 -294 -136 14 13 64 55 110 95 81
69 220 207 286 285 37 43 246 152 583 304 211 96 220 99 220 87z m-45 -229
c-14 -21 -14 -24 0 -24 24 0 20 -51 -5 -57 -11 -3 -20 -9 -20 -14 0 -5 9 -9
20 -9 19 0 20 -7 20 -185 0 -102 -3 -185 -6 -185 -12 0 -454 235 -454 241 0 4
66 37 148 74 81 37 157 77 170 89 13 11 49 58 80 105 l57 83 3 -47 c2 -30 -2
-55 -13 -71z m173 -119 c9 -3 12 -51 12 -195 0 -104 3 -190 7 -190 3 0 118 59
254 130 136 72 253 130 259 130 21 0 162 -71 156 -78 -4 -4 -175 -95 -379
-203 l-372 -197 -175 90 c-96 50 -197 103 -225 118 -42 23 -164 87 -324 171
l-33 18 82 41 82 41 91 -47 c51 -26 115 -59 142 -74 160 -87 264 -140 274
-140 8 0 11 58 11 198 l0 198 63 -4 c34 -2 68 -5 75 -7z"/>
<path  d="M2077 5688 c13 -204 68 -473 105 -519 7 -9 81 -72 163 -141 83 -69
159 -135 169 -147 26 -29 33 -27 41 12 11 50 30 81 100 161 36 41 65 79 65 84
0 18 -624 622 -643 622 -3 0 -3 -33 0 -72z" />
<path d="M3629 5909 l-354 -361 -7 -131 c-8 -152 -26 -363 -34 -392 -3 -11 92
77 213 196 120 119 291 282 379 362 131 119 163 152 168 179 20 112 18 508 -4
508 -4 0 -167 -162 -361 -361z m357 86 c-3 -104 -9 -205 -12 -223 -5 -26 -40
-63 -178 -189 -94 -86 -254 -238 -354 -337 -183 -180 -184 -181 -178 -141 9
59 26 301 26 369 l0 58 342 350 c317 324 343 348 351 326 5 -13 6 -108 3 -213z"/>
<path  d="M1960 3964 c0 -72 70 -320 126 -444 27 -60 29 -63 108 -100 45 -22
116 -58 159 -81 43 -23 79 -40 81 -38 2 2 7 94 11 204 l7 200 -29 17 c-15 9
-71 42 -123 73 -104 63 -326 185 -335 185 -3 0 -5 -7 -5 -16z"/>
<path d="M1110 3683 c0 -16 75 -131 135 -208 134 -172 286 -307 439 -389 75
-41 401 -176 425 -176 6 0 -14 46 -44 103 -59 112 -97 217 -115 317 -6 36 -13
75 -16 87 -8 39 -328 206 -455 237 -124 30 -369 49 -369 29z"/>
<path d="M2000 3375 c0 -81 92 -310 178 -442 46 -70 49 -73 140 -114 51 -23
95 -39 98 -36 3 3 8 86 11 184 l5 178 -216 127 c-196 114 -216 124 -216 103z"/>
<path  d="M1240 3080 c0 -9 230 -283 288 -342 67 -69 124 -100 307 -168 151
-56 359 -130 367 -130 3 0 -16 43 -42 95 -26 52 -64 144 -84 204 l-38 110
-206 91 c-114 51 -241 100 -282 111 -71 18 -310 40 -310 29z"/>
<path  d="M2136 2738 c32 -88 84 -200 130 -278 24 -42 43 -61 66 -69 17 -6 32
-10 34 -9 9 9 44 292 37 299 -10 10 -272 129 -284 129 -5 0 3 -33 17 -72z"/>
<path d="M1530 2531 c0 -10 157 -239 191 -278 38 -45 117 -98 201 -137 79 -36
308 -116 332 -116 9 0 20 20 30 53 38 134 59 217 55 221 -2 2 -166 56 -364
121 -198 64 -379 122 -402 130 -24 8 -43 10 -43 6z"/>
<path d="M4103 3875 c-230 -131 -371 -221 -498 -315 -55 -41 -103 -77 -106
-80 -4 -3 -10 -30 -13 -60 -15 -126 -44 -241 -82 -329 -14 -30 -23 -55 -21
-57 1 -1 29 14 62 35 130 83 369 218 533 303 191 100 180 88 236 236 55 144
105 372 82 372 -6 0 -93 -47 -193 -105z m162 -16 c-21 -103 -59 -224 -98 -312
l-30 -68 -87 -44 c-116 -58 -331 -178 -487 -270 -69 -42 -127 -74 -129 -72 -2
2 5 30 16 61 22 64 45 173 54 255 4 30 8 56 9 56 1 1 38 29 82 62 44 33 132
94 195 136 126 82 482 288 488 282 2 -2 -3 -41 -13 -86z"/>
<path d="M4916 3679 c-152 -20 -243 -53 -446 -165 l-135 -75 -21 -107 c-24
-122 -68 -239 -131 -349 -23 -42 -42 -77 -40 -79 6 -6 351 137 427 176 155 81
275 184 429 370 61 73 151 208 151 228 0 14 -124 15 -234 1z m204 -15 c0 -29
-141 -214 -252 -330 -105 -109 -206 -184 -338 -250 -89 -44 -310 -134 -330
-134 -5 0 9 35 31 78 47 91 94 233 109 328 6 38 12 69 13 70 47 36 314 169
387 194 101 34 380 66 380 44z"/>
<path d="M3905 3187 c-446 -265 -445 -264 -445 -282 0 -31 -83 -223 -135 -312
-29 -51 -52 -93 -51 -93 2 0 75 34 162 76 87 42 258 123 379 180 245 116 239
111 321 261 59 108 91 190 114 291 13 57 15 82 7 81 -7 0 -165 -91 -352 -202z
m330 141 c-22 -109 -90 -265 -170 -388 -41 -63 -45 -66 -141 -109 -54 -25
-209 -98 -343 -163 -134 -65 -245 -117 -247 -115 -1 1 22 50 51 108 29 59 64
139 76 179 l24 72 190 113 c104 62 273 162 375 223 102 61 186 111 188 111 2
1 1 -14 -3 -31z"/>
<path d="M4804 3069 c-97 -12 -135 -25 -365 -126 -208 -91 -218 -96 -225 -127
-11 -50 -72 -204 -115 -290 -22 -43 -38 -81 -36 -83 4 -3 216 70 387 135 167
62 217 92 301 179 70 71 269 307 269 318 0 7 -147 3 -216 -6z m144 -51 c-168
-214 -272 -320 -354 -359 -60 -28 -486 -188 -492 -184 -1 1 15 40 37 86 22 46
54 126 72 177 25 73 38 96 58 106 14 8 115 53 225 100 207 91 289 113 429 115
l59 1 -34 -42z"/>
<path   d="M4402 2432 l-322 -107 -67 -120 c-36 -66 -84 -146 -105 -178 -22 -32
-38 -60 -36 -62 10 -11 299 79 428 133 175 73 231 123 367 327 74 111 76 115
66 114 -4 0 -153 -49 -331 -107z m282 56 c-37 -64 -173 -243 -202 -266 -98
-76 -283 -153 -523 -217 l-46 -13 47 77 c25 42 66 113 91 159 l44 82 265 86
c146 47 276 89 290 94 36 12 42 12 34 -2z"/>
</g>
</svg>
