<svg height="448pt" viewBox="0 0 448 448" width="448pt" xmlns="http://www.w3.org/2000/svg"><path d="m224 0c-123.710938 0-224 100.289062-224 224s100.289062 224 224 224 224-100.289062 224-224c-.140625-123.652344-100.347656-223.859375-224-224zm-40 136c0-22.089844 17.910156-40 40-40s40 17.910156 40 40v96c0 22.089844-17.910156 40-40 40s-40-17.910156-40-40zm128 96c-.058594 45.46875-34.722656 83.421875-80 87.59375v32.40625h24c4.417969 0 8 3.582031 8 8s-3.582031 8-8 8h-64c-4.417969 0-8-3.582031-8-8s3.582031-8 8-8h24v-32.40625c-45.277344-4.171875-79.941406-42.125-80-87.59375v-16c0-4.417969 3.582031-8 8-8s8 3.582031 8 8v16c0 39.765625 32.234375 72 72 72s72-32.234375 72-72v-16c0-4.417969 3.582031-8 8-8s8 3.582031 8 8zm0 0"/><path d="m224 256c13.253906 0 24-10.746094 24-24v-96c0-13.253906-10.746094-24-24-24s-24 10.746094-24 24v96c0 13.253906 10.746094 24 24 24zm0 0"/></svg>